<?xml version="1.0" encoding="utf-8"?>
<!-- Generator: Adobe Illustrator 24.1.1, SVG Export Plug-In . SVG Version: 6.00 Build 0)  -->
<svg version="1.1" id="Layer_1" xmlns="http://www.w3.org/2000/svg" xmlns:xlink="http://www.w3.org/1999/xlink" x="0px" y="0px"
	 viewBox="0 0 512 512" style="enable-background:new 0 0 512 512;" xml:space="preserve">
<style type="text/css">
	.st0{fill:#00832D;}
	.st1{fill:#0066DA;}
	.st2{fill:#E94235;}
	.st3{fill:#2684FC;}
	.st4{fill:#00AC47;}
	.st5{fill:#FFBA00;}
</style>
<g>
	<polygon class="st0" points="289.6,256 339.5,313 406.6,355.9 418.3,256.4 406.6,159 338.2,196.7 	"/>
	<path class="st1" d="M0,346.7v84.8c0,19.4,15.7,35.1,35.1,35.1h84.8l17.6-64.1l-17.6-55.8l-58.2-17.6L0,346.7z"/>
	<polygon class="st2" points="119.9,45.4 0,165.3 61.7,182.9 119.9,165.3 137.2,110.3 	"/>
	<rect x="0" y="165.3" class="st3" width="119.9" height="181.4"/>
	<path class="st4" d="M483.3,96.2L406.6,159v196.9l77,63.1c11.5,9,28.4,0.8,28.4-13.9V109.7C512,94.9,494.8,86.8,483.3,96.2z
		 M289.6,256v90.7H119.9v119.9h251.6c19.4,0,35.1-15.7,35.1-35.1v-75.6L289.6,256z"/>
	<path class="st5" d="M371.5,45.4H119.9v119.9h169.7V256l117-96.9V80.5C406.6,61.1,390.9,45.4,371.5,45.4z"/>
</g>
</svg>
