<?xml version="1.0" encoding="UTF-8"?>
<svg width="1024" height="1024" version="1.1" viewBox="0 0 1024 1024" xmlns="http://www.w3.org/2000/svg" xmlns:cc="http://creativecommons.org/ns#" xmlns:dc="http://purl.org/dc/elements/1.1/" xmlns:rdf="http://www.w3.org/1999/02/22-rdf-syntax-ns#" xmlns:xlink="http://www.w3.org/1999/xlink">
 <metadata>
  <rdf:RDF>
   <cc:Work rdf:about="">
    <dc:format>image/svg+xml</dc:format>
    <dc:type rdf:resource="http://purl.org/dc/dcmitype/StillImage"/>
    <dc:title/>
   </cc:Work>
  </rdf:RDF>
 </metadata>
 <defs>
  <linearGradient id="linearGradient1507">
   <stop stop-color="#10266b" offset="0"/>
   <stop stop-color="#03a2c0" offset="1"/>
  </linearGradient>
  <linearGradient id="linearGradient1509" x1="306.57" x2="751.72" y1="382.83" y2="671.7" gradientUnits="userSpaceOnUse" xlink:href="#linearGradient1507"/>
  <linearGradient id="linearGradient1635" x1="443.6" x2="654.51" y1="507.92" y2="507.92" gradientUnits="userSpaceOnUse" xlink:href="#linearGradient1507"/>
  <linearGradient id="linearGradient1637" x1="493.11" x2="527.84" y1="570.45" y2="570.45" gradientUnits="userSpaceOnUse" xlink:href="#linearGradient1507"/>
 </defs>
 <circle cx="512" cy="512" r="334.5" fill="#fff" stroke="#fff" stroke-width="8.1578"/>
 <circle cx="515.23" cy="511.81" r="17.216" fill="#fff"/>
 <g fill="none" stroke-linecap="round" stroke-width="30">
  <path d="m528.48 758.97a247.52 247.52 0 0 1-240.38-141.42 247.52 247.52 0 0 1 43.858-275.43 247.52 247.52 0 0 1 272.42-59.765 247.52 247.52 0 0 1 155.13 231.77" stroke="url(#linearGradient1509)" stroke-linejoin="round"/>
  <path d="m508.11 449.74 4.7309 241.42" stroke="url(#linearGradient1637)"/>
  <path d="m458.6 509.01h180.92" stroke="url(#linearGradient1635)"/>
 </g>
 <circle cx="507.03" cy="507.59" r="17.216" fill="#fff"/>
</svg>
