<?xml version="1.0" encoding="UTF-8"?>
<svg width="1920" height="1080" version="1.1" viewBox="0 0 1920 1080" xmlns="http://www.w3.org/2000/svg" xmlns:xlink="http://www.w3.org/1999/xlink">
 <g stroke-width="1.1554">
  <rect transform="rotate(-30)" x="-545.02" y="-121.59" width="2218.4" height="1247.8" fill="#713ffe" opacity=".83"/>
  <path d="m1900.8-54.447s-46.813 194.18-295.18 170.42c-248.37-23.76-255.38 48.74-392.65 255.8-156.54 236.12-257.35 372.8-654.88 425.53-397.53 52.726-578.48 257.45-578.48 257.45l107.69 186.53 1925-1102.6z" fill="#fff" opacity=".5"/>
  <path d="m11.848 1110.6s175.31 28.38 295.18-170.42c119.87-198.8 179.51-180.16 415.02-217.05 268.57-42.07 429.71-74.265 691.34-362.37 261.63-288.11 519.65-359.35 519.65-359.35l856.06 1121.6-2479 955.03z" fill="#e6e6e6"/>
 </g>
</svg>
