<?xml version="1.0" encoding="UTF-8"?>
<svg width="1920" height="2560" version="1.1" viewBox="0 0 1920 2560" xmlns="http://www.w3.org/2000/svg">
 <defs>
  <filter id="filter1386-7" x="-.045337" y="-.02802" width="1.0907" height="1.056" color-interpolation-filters="sRGB">
   <feGaussianBlur stdDeviation="15.925913"/>
  </filter>
  <filter id="filter1386-7-1" x="-.045337" y="-.02802" width="1.0907" height="1.056" color-interpolation-filters="sRGB">
   <feGaussianBlur stdDeviation="15.925913"/>
  </filter>
  <filter id="filter1386-7-1-0" x="-.045337" y="-.02802" width="1.0907" height="1.056" color-interpolation-filters="sRGB">
   <feGaussianBlur stdDeviation="15.925913"/>
  </filter>
 </defs>
 <rect x="-1.709" y="-2.2787" width="1923.4" height="2564.6" fill="#ececec" opacity=".83" stroke-width="1.5423"/>
 <g stroke-linecap="round">
  <g stroke-linejoin="round">
   <g transform="matrix(.64279 .76604 .76604 -.64279 285.02 1307.9)" opacity=".1">
    <rect transform="matrix(.34731 .93775 -.94158 .33679 1951.4 1264.4)" x="-799.72" y="-25.694" width="843.07" height="1364.1" fill="#808080" filter="url(#filter1386-7)" stroke-width="1.0745"/>
    <rect transform="rotate(70)" x="1060.5" y="-1369.9" width="822.32" height="1312.9" rx="36.726" ry="36.726" fill="#fff" stroke-width="1.0411"/>
   </g>
   <g transform="matrix(.64279 .76604 .76604 -.64279 -1265.2 728.17)" opacity=".1">
    <rect transform="matrix(.34731 .93775 -.94158 .33679 1951.4 1264.4)" x="-799.72" y="-25.694" width="843.07" height="1364.1" fill="#808080" filter="url(#filter1386-7-1)" stroke-width="1.0745"/>
    <rect transform="rotate(70)" x="1060.5" y="-1369.9" width="822.32" height="1312.9" rx="36.726" ry="36.726" fill="#fff" stroke-width="1.0411"/>
   </g>
   <g transform="matrix(-.76604 .64279 .64279 .76604 1644.5 -1424.9)" opacity=".1">
    <rect transform="matrix(.34731 .93775 -.94158 .33679 1951.4 1264.4)" x="-799.72" y="-25.694" width="843.07" height="1364.1" fill="#808080" filter="url(#filter1386-7-1-0)" stroke-width="1.0745"/>
    <rect transform="rotate(70)" x="1060.5" y="-1369.9" width="822.32" height="1312.9" rx="36.726" ry="36.726" fill="#fff" stroke-width="1.0411"/>
   </g>
  </g>
  <g transform="translate(453.23 1218.8)" opacity=".1" stroke-linejoin="round">
   <rect transform="rotate(-20)" x="261.28" y="607.84" width="357.75" height="670.78" rx="27.194" ry="29.706" fill="none" stroke="#b3b3b3" stroke-width="16"/>
   <path d="m516.58 459.21 31.516-11.471a11.18 11.18 0 0 1 14.329 6.6817 22.359 22.359 0 0 0 28.658 13.363l84.043-30.589a22.359 22.359 0 0 0 13.363-28.658 11.18 11.18 0 0 1 6.6817-14.329l31.516-11.471" fill="#b3b3b3" stroke="#b3b3b3" stroke-width="16"/>
   <circle transform="rotate(-20)" cx="440.16" cy="628.97" r="10.93" fill="#808080" stroke="#666" stroke-width="7.4408"/>
   <circle transform="rotate(-20)" cx="400.16" cy="626.97" r="8.2142" fill="#808080" stroke="#666" stroke-width="5.592"/>
  </g>
  <path d="m1771.1 1076.6q7.89-0.65 15.95-0.65c106 0 192 86 192 192s-86 192-192 192a192.09 192.09 0 0 1-182.88-133.35" fill="none" opacity=".05" stroke="currentColor" stroke-miterlimit="7" stroke-width="18"/>
  <path d="m1771 1043.9c-114.88 0-208 93.12-208 208a207.29 207.29 0 0 0 18.09 85l189.91-85z" fill="none" opacity=".05" stroke="currentColor" stroke-linejoin="round" stroke-miterlimit="7" stroke-width="18"/>
 </g>
 <path d="m702.91 1117.1a28.12 28.12 0 0 0-11.466 45.021l-35.365 75.841a28.022 28.022 0 0 0-19.29 7.0209l-54.216-25.281a28.12 28.12 0 1 0-49.189 17.903l-42.088 90.258a28.12 28.12 0 1 0 20.391 9.5084l42.088-90.258a28.022 28.022 0 0 0 19.29-7.0208l54.216 25.281a28.12 28.12 0 1 0 49.189-17.903l35.365-75.841a28.12 28.12 0 1 0-8.9244-54.529z" opacity=".05" stroke-width=".703"/>
 <path d="m344.08 848.42a39.368 39.368 0 1 1 23.529-50.459 39.41 39.41 0 0 1-23.529 50.459zm100.41-36.547a39.368 39.368 0 1 1 23.529-50.459 39.41 39.41 0 0 1-23.529 50.459zm100.41-36.547a39.368 39.368 0 1 1 23.529-50.459 39.41 39.41 0 0 1-23.529 50.459zm-164.28 173.51a39.368 39.368 0 1 1 23.529-50.459 39.41 39.41 0 0 1-23.529 50.459zm100.41-36.547a39.368 39.368 0 1 1 23.529-50.459 39.41 39.41 0 0 1-23.529 50.459zm100.41-36.547a39.368 39.368 0 1 1 23.529-50.459 39.41 39.41 0 0 1-23.529 50.459zm-164.28 173.51a39.368 39.368 0 1 1 23.529-50.459 39.41 39.41 0 0 1-23.529 50.459zm100.41-36.547a39.368 39.368 0 1 1 23.529-50.459 39.41 39.41 0 0 1-23.529 50.459zm100.41-36.547a39.368 39.368 0 1 1 23.529-50.459 39.41 39.41 0 0 1-23.529 50.459z" opacity=".05" stroke-width=".703"/>
 <path d="m1762.4 1998.5-277.75-277.13-45-23 23 44.99 277.13 277.76zm56.56 56.56-22.62-22.62-22.63 22.62 22.63 22.62a16 16 0 0 0 22.62 0v0a16 16 0 0 0 0-22.62z" fill="#e6e6e6" stroke="#ececec" stroke-linecap="round" stroke-linejoin="round" stroke-width="10"/>
</svg>
